<svg xmlns="http://www.w3.org/2000/svg" viewBox="0 0 1024 1024">
  <g fill="rgba(0,0,0,1.0)">
    <polygon points="72,332 352,452 232,562"/>
    <polygon points="492,452 772,332 632,562"/>
    <ellipse cx="432" cy="567" rx="170" ry="165"/>
    <path d="M 82,792 A 120 120 0 1 0 312,792 L 312,872 L 82,872 Z"/>
    <ellipse cx="292" cy="667" rx="70" ry="55"/>
    <ellipse cx="482" cy="667" rx="70" ry="55"/>
    <rect x="552" y="642" width="360" height="220"/>
    <polygon points="492,822 912,902 912,942 442,862"/>
  </g>
  <!-- envelope cutout -->
  <mask id="hole">
    <rect x="0" y="0" width="1024" height="1024" fill="white"/>
    <rect x="582" y="672" width="300" height="160" fill="black"/>
    <polygon points="582,672 732,762 882,672 882,682 732,782 582,682" fill="black"/>
  </mask>
  <rect x="0" y="0" width="1024" height="1024" fill="rgba(0,0,0,1.0)" mask="url(#hole)" opacity="0"/>
</svg>